Motion_pl04
version=1
nRows=8
nColumns=43
inDegrees=yes
endheader
time	pelvis_tilt	pelvis_list	pelvis_rotation	pelvis_tx	pelvis_ty	pelvis_tz	hip_flexion_r	hip_adduction_r	hip_rotation_r	knee_angle_r	ankle_angle_r	subtalar_angle_r	mtp_angle_r	hip_flexion_l	hip_adduction_l	hip_rotation_l	knee_angle_l	ankle_angle_l	subtalar_angle_l	mtp_angle_l	lumbar_extension	lumbar_bending	lumbar_rotation	neck_flexion	neck_lateral_bending	neck_rotation	arm_flex_r	arm_add_r	arm_rot_r	elbow_flex_r	pro_sup_r	wrist_flex_r	wrist_dev_r	hand_finger_flex_r	arm_flex_l	arm_add_l	arm_rot_l	elbow_flex_l	pro_sup_l	wrist_flex_l	wrist_dev_l	hand_finger_flex_l
      2.61250000	      0.79132625	    -18.60292141	     90.74233170	      0.00080822	      1.66299800	      1.27093469	     68.29710977	     -3.91444708	      1.53277606	   -119.50198385	     -7.03480890	      1.60524850	     31.13846338	     56.17124269	    -11.86903378	      3.95612663	   -120.75472782	      4.64372793	      2.64973188	     28.43189794	    -29.10459989	     -2.14034229	      2.20203851	      5.98982731	      8.08603587	     -0.34194981	     92.26921308	    -12.50923973	     26.72241303	     53.12237882	    102.75446732	     -3.44852676	    -13.39697444	    -29.53073904	     90.91910282	    -12.81855500	     16.21978905	     52.92737767	    117.27103614	     -9.44439851	     -7.24419877	    -20.24716360
      2.61500000	      0.94464729	    -18.61931512	     90.68745407	      0.00108736	      1.66220545	      1.26643112	     68.59630625	     -3.66307810	      1.08861836	   -118.93343290	     -7.38097080	      0.77285537	     31.13129791	     56.55318372	    -12.05925570	      3.70043670	   -120.32091589	      3.90062733	     -0.04688837	     28.02322664	    -28.93257023	     -2.02302542	      2.35668324	      6.01498609	      8.15632505	     -0.33557973	     90.94266239	    -12.44098271	     25.56063987	     53.60728246	    103.28227598	     -3.04767219	    -12.61832525	    -29.51218234	     89.78875207	    -13.34219988	     15.87024583	     53.39930871	    117.69465912	     -8.88014297	     -6.73759515	    -20.45832503
      2.61750000	      0.86455948	    -18.36297607	     90.74822421	      0.00078005	      1.66197597	      1.26183516	     68.62199621	     -3.76833114	      0.79647048	   -118.35665682	     -7.33800129	      0.46015780	     31.12878005	     56.54836227	    -11.93096137	      3.52530546	   -119.76957286	      3.83303024	     -0.50858991	     27.87383406	    -29.10890368	     -2.00622929	      2.37372905	      5.69535442	      8.05744952	     -0.35794763	     89.92119332	    -12.94074747	     25.40982651	     53.98512111	    103.43278993	     -2.92520922	    -12.64752331	    -29.51106332	     88.80050213	    -13.90830199	     15.98474713	     53.68735832	    117.83436421	     -8.73061399	     -6.81925798	    -20.50906611
      2.62000000	      0.77074504	    -18.08936566	     90.76572870	      0.00096362	      1.66125902	      1.25740474	     68.68020495	     -3.78397020	      0.48922478	   -117.84843228	     -7.37988368	      0.32324217	     31.12779916	     56.63581218	    -11.89622657	      3.38780682	   -119.43088268	      3.83604436	     -0.75022470	     27.80973034	    -29.23319750	     -2.07360348	      2.36789124	      5.79469232	      8.01798420	     -0.36983268	     89.04496181	    -13.21368793	     25.40921937	     53.84589765	    103.46862251	     -2.87342129	    -12.57081465	    -29.50973431	     88.00942006	    -14.28972942	     16.04500619	     53.47887212	    117.87680185	     -8.65778626	     -6.76528979	    -20.51586481
      2.62250000	      1.09472449	    -18.14111242	     90.66470808	      0.00139344	      1.66054531	      1.25248810	     68.91907527	     -3.35232991	     -0.00797966	   -117.09502153	     -7.72280900	     -0.65394856	     31.11439988	     56.97875208	    -12.32758463	      3.10620714	   -118.93753523	      3.59491282	     -3.94206315	     26.87536305	    -29.08422042	     -1.84348321	      2.63539607	      5.61033695	      8.01512761	     -0.43228268	     87.24950357	    -13.09447787	     23.66481390	     54.86908853	    103.86589055	     -2.79077211	    -12.11082276	    -29.60402711	     86.50035697	    -15.15075676	     15.72673940	     54.59442177	    118.21031497	     -8.43991947	     -6.63130017	    -20.87325884
      2.62500000	      1.02273550	    -17.91654995	     90.74727666	      0.00107379	      1.66017916	      1.24801768	     68.94942292	     -3.45411031	     -0.25334295	   -116.43824903	     -7.84972506	     -0.75391108	     31.11013373	     57.07051267	    -12.20134820	      2.89075655	   -118.36952430	      3.53272960	     -4.41670752	     26.58331674	    -29.25383942	     -1.81675316	      2.60449130	      5.23082586	      7.92105415	     -0.42784538	     86.19899859	    -13.61183900	     23.53987047	     55.23742861	    104.08029157	     -2.61661911	    -12.12429345	    -29.57852191	     85.52579407	    -15.75871178	     15.82834122	     54.86726012	    118.34583412	     -8.30189612	     -6.65745202	    -20.95701150
      2.62750000	      1.05865647	    -17.77574758	     90.75905002	      0.00116327	      1.65946296	      1.24327854	     69.04014760	     -3.38415551	     -0.56553380	   -115.76466829	     -7.85514500	     -0.88506607	     31.10365706	     57.25602630	    -12.28469780	      2.67587681	   -117.92802001	      3.69830382	     -5.53240370	     26.11607663	    -29.28575998	     -1.78264432	      2.62151754	      5.02834399	      7.86794939	     -0.46060987	     84.81393375	    -13.82817398	     22.85283911	     55.71281729	    104.28142012	     -2.58119061	    -12.08004374	    -29.62758029	     84.33081228	    -16.45000630	     15.80087806	     55.38923577	    118.50592444	     -8.21956669	     -6.65571974	    -21.15569101
      2.63000000	      1.10213074	    -17.70525416	     90.78574482	      0.00126462	      1.65873058	      1.23881315	     69.22881904	     -3.31957189	     -0.86708577	   -115.06751023	     -7.88909416	     -0.86512851	     31.09784984	     57.46681914	    -12.36003377	      2.40844372	   -117.29990984	      3.78926368	     -6.45814655	     25.67634401	    -29.29265977	     -1.72153539	      2.65499473	      4.90729132	      7.84622001	     -0.46386214	     83.59596645	    -14.01781675	     22.21109565	     55.98922994	    104.47569845	     -2.53914425	    -11.98659449	    -29.66220889	     83.26126382	    -17.11236576	     15.73886448	     55.74190322	    118.63931780	     -8.15253950	     -6.56158958	    -21.35480420
